<?xml version="1.0" standalone="no"?>
<!DOCTYPE svg PUBLIC "-//W3C//DTD SVG 20010904//EN"
 "http://www.w3.org/TR/2001/REC-SVG-20010904/DTD/svg10.dtd">
<svg version="1.0" xmlns="http://www.w3.org/2000/svg"
 width="1024.000000pt" height="1024.000000pt" viewBox="0 0 1024.000000 1024.000000"
 preserveAspectRatio="xMidYMid meet">

<g transform="translate(0.000000,1024.000000) scale(0.100000,-0.100000)"
fill="#11a9ff" stroke="none">
<path d="M5545 8098 c-3 -7 -385 -1345 -850 -2973 -465 -1628 -848 -2968 -851
-2978 -5 -16 18 -17 422 -15 l428 3 847 2965 c466 1631 850 2975 854 2988 l5
22 -425 0 c-331 0 -427 -3 -430 -12z"/>
<path d="M1710 6192 c-464 -581 -844 -1064 -844 -1072 0 -8 380 -491 844
-1072 l845 -1057 428 0 427 -1 -850 1062 c-467 585 -850 1065 -850 1068 0 3
383 483 850 1068 l850 1062 -427 -1 -428 0 -845 -1057z"/>
<path d="M7680 6188 c467 -585 850 -1065 850 -1068 0 -3 -383 -483 -850 -1068
l-850 -1062 427 1 428 0 845 1057 c464 581 844 1064 844 1072 0 8 -380 491
-844 1072 l-845 1057 -428 0 -427 1 850 -1062z"/>
</g>
</svg>
