<?xml version="1.0" standalone="no"?>
<!DOCTYPE svg PUBLIC "-//W3C//DTD SVG 20010904//EN"
 "http://www.w3.org/TR/2001/REC-SVG-20010904/DTD/svg10.dtd">
<svg version="1.0" xmlns="http://www.w3.org/2000/svg"
 width="1024.000000pt" height="1024.000000pt" viewBox="0 0 1024.000000 1024.000000"
 preserveAspectRatio="xMidYMid meet">

<g transform="translate(0.000000,1024.000000) scale(0.100000,-0.100000)"
fill="#27ae60" stroke="none">
<path d="M9510 9953 c-227 -41 -803 -179 -1100 -264 -907 -260 -1692 -623
-2261 -1045 -554 -412 -956 -870 -1213 -1381 -68 -137 -109 -236 -181 -434
-30 -83 -56 -154 -59 -157 -8 -8 -45 20 -172 128 -251 215 -494 347 -853 464
-416 136 -882 204 -1521 222 -546 15 -1493 -60 -1627 -130 -44 -22 -100 -89
-114 -134 -15 -53 0 -116 107 -434 125 -370 218 -597 369 -897 485 -970 1113
-1555 1839 -1713 90 -20 130 -22 371 -22 301 0 365 7 567 69 271 82 511 198
803 390 165 108 221 139 230 125 4 -6 15 -86 26 -178 40 -345 102 -649 254
-1247 104 -411 120 -503 136 -762 26 -450 -33 -994 -181 -1669 -69 -313 -85
-410 -76 -458 4 -22 25 -55 55 -88 l49 -53 83 -3 c75 -3 88 -1 119 20 19 13
45 41 57 63 89 155 236 865 288 1383 39 400 39 899 0 1168 -9 60 -43 213 -76
339 -139 535 -211 863 -264 1200 -32 198 -44 375 -25 375 6 0 69 -24 139 -54
480 -203 1029 -356 1382 -385 363 -30 683 -21 886 24 1300 290 2045 1445 2243
3475 57 587 64 1249 19 1743 -18 203 -38 252 -124 299 -49 27 -104 34 -175 21z
m-113 -480 c13 -47 9 -1071 -5 -1263 -108 -1458 -470 -2454 -1089 -2996 -277
-241 -637 -394 -1002 -423 -220 -18 -642 11 -880 60 -312 64 -743 215 -1194
418 l-69 31 38 67 c66 120 212 342 301 461 146 194 432 475 604 593 79 54 261
144 484 239 549 236 1051 531 1584 930 217 163 276 219 287 275 26 138 -68
266 -196 267 -61 0 -95 -21 -365 -222 -549 -409 -951 -642 -1535 -890 -235
-99 -361 -164 -479 -242 -256 -171 -568 -481 -780 -777 -73 -100 -77 -96 -68
63 20 345 128 733 298 1066 160 314 342 548 670 864 235 227 426 371 739 558
559 333 1288 618 2095 818 169 42 523 125 547 129 4 1 11 -11 15 -26z m-7142
-2403 c154 -5 348 -16 430 -25 981 -102 1606 -418 1856 -938 32 -66 42 -101
49 -169 8 -80 3 -238 -7 -238 -3 0 -56 22 -118 50 -305 135 -630 233 -1073
324 -284 59 -496 87 -708 93 l-191 6 -40 -37 c-109 -98 -106 -258 6 -331 43
-28 84 -36 391 -75 660 -85 1104 -200 1470 -381 170 -84 230 -121 230 -139 0
-15 -175 -146 -361 -270 -275 -182 -530 -301 -750 -348 -575 -124 -1011 21
-1476 490 -366 369 -653 838 -923 1508 -116 287 -154 401 -138 412 7 4 18 8
23 8 6 0 66 7 135 15 238 27 376 37 605 44 127 4 248 8 270 9 22 1 166 -3 320
-8z"/>
</g>
</svg>
